<?xml version="1.0" encoding="UTF-8"?>
<svg version="1.1" xmlns="http://www.w3.org/2000/svg" width="512" height="512">
<path d="M0 0 C11.5800633 7.81859593 18.79827129 18.57368383 26.75390625 29.859375 C27.78892946 31.31910476 28.82407961 32.77874452 29.859375 34.23828125 C31.83297927 37.02696433 33.79902785 39.82081595 35.76171875 42.6171875 C38.8695319 47.03614134 42.02494533 51.4198197 45.19140625 55.796875 C45.73087891 56.54259766 46.27035156 57.28832031 46.82617188 58.05664062 C48.46804295 60.32473189 50.11079881 62.59217928 51.75390625 64.859375 C58.63223561 74.35024489 65.48168827 83.85758155 72.22143555 93.44750977 C76.49469526 99.51817891 80.83938994 105.53581385 85.21484375 111.53320312 C88.86373505 116.55508286 92.34538895 121.67151155 95.75390625 126.859375 C95.92200806 125.9465979 95.92200806 125.9465979 96.09350586 125.01538086 C98.03894062 114.79519387 102.5954069 106.3762876 111.11328125 100.12890625 C121.74166667 93.4449061 131.65109235 91.10562186 144.16015625 93.515625 C151.70850773 95.56143989 156.92780802 98.73947049 162.75390625 103.859375 C163.74390625 104.519375 164.73390625 105.179375 165.75390625 105.859375 C165.81578125 104.89 165.87765625 103.920625 165.94140625 102.921875 C167.22520157 94.29962808 173.34215386 86.46177504 179.75390625 80.859375 C190.51542875 74.19282145 201.00551435 72.26614752 213.57421875 74.3203125 C224.17677985 77.14544634 230.88811132 83.62700697 237.75390625 91.859375 C238.41390625 92.519375 239.07390625 93.179375 239.75390625 93.859375 C239.99625 93.33988281 240.23859375 92.82039063 240.48828125 92.28515625 C240.8234375 91.58777344 241.15859375 90.89039063 241.50390625 90.171875 C241.99117188 89.14513672 241.99117188 89.14513672 242.48828125 88.09765625 C245.40626047 82.93715596 248.34100172 80.17325107 253.69140625 77.609375 C254.71105469 77.10921875 255.73070312 76.6090625 256.78125 76.09375 C264.37721405 72.93957833 272.91442728 73.11559513 280.6484375 75.90234375 C287.63124134 79.30475941 292.58841143 83.01812914 296.59375 89.78515625 C296.93357407 90.35446365 297.27339813 90.92377106 297.6235199 91.5103302 C298.67870124 93.2867593 299.71836315 95.07143789 300.75390625 96.859375 C301.38055176 97.93622559 302.00719727 99.01307617 302.65283203 100.12255859 C304.55544982 103.42246609 306.43839598 106.73290663 308.31640625 110.046875 C309.72156102 112.51755097 311.12841898 114.98725606 312.53515625 117.45703125 C312.88808243 118.07713074 313.24100861 118.69723022 313.60462952 119.33612061 C317.15174725 125.56575663 320.73083698 131.77679908 324.31640625 137.984375 C324.92709961 139.04229248 325.53779297 140.10020996 326.16699219 141.19018555 C329.33300974 146.67313714 332.50309447 152.15371765 335.67578125 157.6328125 C350.62582734 183.46613397 350.62582734 183.46613397 356.75390625 194.859375 C357.296521 195.86653564 357.296521 195.86653564 357.85009766 196.89404297 C370.6832371 220.95255178 375.8717575 246.50119151 379.66064453 273.29858398 C382.1047132 290.42891275 385.45518866 306.87753189 391.93359375 322.9765625 C392.85874268 326.22780018 392.8055955 327.67424127 391.75390625 330.859375 C389.84985352 332.47412109 389.84985352 332.47412109 387.3203125 333.8828125 C386.37494629 334.42091553 385.42958008 334.95901855 384.45556641 335.51342773 C383.41964355 336.08134033 382.3837207 336.64925293 381.31640625 337.234375 C379.10673517 338.4830098 376.89710098 339.73170989 374.6875 340.98046875 C373.54007324 341.62097168 372.39264648 342.26147461 371.21044922 342.92138672 C365.73471721 345.99147859 360.31017799 349.14904189 354.87890625 352.296875 C352.69440791 353.55667909 350.50950959 354.81578985 348.32421875 356.07421875 C341.79904382 359.83292881 335.27627175 363.5957925 328.75390625 367.359375 C326.58725042 368.60939379 324.42058375 369.85939378 322.25390625 371.109375 C321.18140625 371.728125 320.10890625 372.346875 319.00390625 372.984375 C298.42057292 384.859375 277.83723958 396.734375 257.25390625 408.609375 C255.64273926 409.53919189 255.64273926 409.53919189 253.99902344 410.48779297 C251.84932708 411.7276043 249.69894468 412.96622694 247.54785156 414.20361328 C242.47416091 417.12410542 237.40826662 420.05611925 232.36633301 423.03106689 C229.98802312 424.43337904 227.60575123 425.82888097 225.22314453 427.22387695 C223.54589896 428.2096934 221.87442744 429.20531297 220.203125 430.20117188 C219.18347656 430.79736328 218.16382813 431.39355469 217.11328125 432.0078125 C216.22092773 432.53552246 215.32857422 433.06323242 214.40917969 433.60693359 C211.44703253 435.00412143 209.02129905 435.64261576 205.75390625 435.859375 C203.54924568 434.18982622 201.99009526 432.76656001 200.19140625 430.734375 C199.73572266 430.24710937 199.28003906 429.75984375 198.81054688 429.2578125 C197.44848406 427.80081217 196.10111203 426.33012367 194.75390625 424.859375 C193.09376778 423.18620561 191.42706551 421.51952369 189.75390625 419.859375 C188.85414063 418.93640625 187.954375 418.0134375 187.02734375 417.0625 C181.52731217 411.43850005 175.94305438 406.14862816 169.76953125 401.25390625 C167.54319955 399.4861066 165.35293331 397.69748242 163.17578125 395.87109375 C153.96891568 388.18469228 144.40073685 381.27660452 134.41845703 374.63525391 C131.55250858 372.72514679 128.6978106 370.79891347 125.84375 368.87109375 C104.08709857 354.21390812 81.73167413 340.30711614 58.51171875 328.06640625 C48.91910226 322.99873895 41.30944256 317.71284255 33.75390625 309.859375 C32.74457031 308.87904297 32.74457031 308.87904297 31.71484375 307.87890625 C21.72215165 297.55605913 16.93854584 283.00276775 16.75390625 268.859375 C17.59269332 255.96690711 22.00737425 246.20522431 31.33984375 237.35546875 C36.16304073 233.38142617 40.64735983 232.96424304 46.75390625 232.859375 C48.00816406 232.83230469 49.26242188 232.80523437 50.5546875 232.77734375 C61.64426294 232.63306061 61.64426294 232.63306061 66.75390625 233.859375 C60.9361116 223.83911017 54.97493336 213.92177447 48.85473633 204.08325195 C44.78172923 197.53220768 40.75644513 190.95368545 36.75390625 184.359375 C32.28799348 177.00455179 27.79238498 169.6696439 23.25390625 162.359375 C18.18853088 154.19938744 13.1809036 146.00581246 8.1953125 137.796875 C3.74112998 130.4680769 -0.74621311 123.16019071 -5.24609375 115.859375 C-10.91398945 106.66351731 -16.54965116 97.44895392 -22.15258789 88.21337891 C-25.56230486 82.60042259 -29.01238299 77.01481753 -32.4921875 71.44506836 C-52.49637655 39.38581446 -52.49637655 39.38581446 -49.09375 20.07421875 C-46.57901771 10.53677787 -40.39954849 3.5296657 -32.0390625 -1.45703125 C-21.58550531 -6.43243907 -9.91751419 -5.75770465 0 0 Z " fill="#FECFA0" transform="translate(119.24609375,76.140625)"/>
<path d="M0 0 C11.5800633 7.81859593 18.79827129 18.57368383 26.75390625 29.859375 C27.78892946 31.31910476 28.82407961 32.77874452 29.859375 34.23828125 C31.83297927 37.02696433 33.79902785 39.82081595 35.76171875 42.6171875 C38.8695319 47.03614134 42.02494533 51.4198197 45.19140625 55.796875 C45.73087891 56.54259766 46.27035156 57.28832031 46.82617188 58.05664062 C48.46804295 60.32473189 50.11079881 62.59217928 51.75390625 64.859375 C58.63223561 74.35024489 65.48168827 83.85758155 72.22143555 93.44750977 C76.49469526 99.51817891 80.83938994 105.53581385 85.21484375 111.53320312 C88.86373505 116.55508286 92.34538895 121.67151155 95.75390625 126.859375 C95.92200806 125.9465979 95.92200806 125.9465979 96.09350586 125.01538086 C98.03894062 114.79519387 102.5954069 106.3762876 111.11328125 100.12890625 C121.74166667 93.4449061 131.65109235 91.10562186 144.16015625 93.515625 C151.70850773 95.56143989 156.92780802 98.73947049 162.75390625 103.859375 C163.74390625 104.519375 164.73390625 105.179375 165.75390625 105.859375 C165.81578125 104.89 165.87765625 103.920625 165.94140625 102.921875 C167.22520157 94.29962808 173.34215386 86.46177504 179.75390625 80.859375 C190.51542875 74.19282145 201.00551435 72.26614752 213.57421875 74.3203125 C224.17677985 77.14544634 230.88811132 83.62700697 237.75390625 91.859375 C238.41390625 92.519375 239.07390625 93.179375 239.75390625 93.859375 C239.99625 93.33988281 240.23859375 92.82039063 240.48828125 92.28515625 C240.8234375 91.58777344 241.15859375 90.89039063 241.50390625 90.171875 C241.99117188 89.14513672 241.99117188 89.14513672 242.48828125 88.09765625 C245.40626047 82.93715596 248.34100172 80.17325107 253.69140625 77.609375 C254.71105469 77.10921875 255.73070312 76.6090625 256.78125 76.09375 C264.37721405 72.93957833 272.91442728 73.11559513 280.6484375 75.90234375 C287.63124134 79.30475941 292.58841143 83.01812914 296.59375 89.78515625 C296.93357407 90.35446365 297.27339813 90.92377106 297.6235199 91.5103302 C298.67870124 93.2867593 299.71836315 95.07143789 300.75390625 96.859375 C301.38055176 97.93622559 302.00719727 99.01307617 302.65283203 100.12255859 C304.55544982 103.42246609 306.43839598 106.73290663 308.31640625 110.046875 C309.72156102 112.51755097 311.12841898 114.98725606 312.53515625 117.45703125 C312.88808243 118.07713074 313.24100861 118.69723022 313.60462952 119.33612061 C317.15174725 125.56575663 320.73083698 131.77679908 324.31640625 137.984375 C324.92709961 139.04229248 325.53779297 140.10020996 326.16699219 141.19018555 C329.33300974 146.67313714 332.50309447 152.15371765 335.67578125 157.6328125 C350.62582734 183.46613397 350.62582734 183.46613397 356.75390625 194.859375 C357.296521 195.86653564 357.296521 195.86653564 357.85009766 196.89404297 C370.6832371 220.95255178 375.8717575 246.50119151 379.66064453 273.29858398 C382.1047132 290.42891275 385.45518866 306.87753189 391.93359375 322.9765625 C392.85874268 326.22780018 392.8055955 327.67424127 391.75390625 330.859375 C389.84985352 332.47412109 389.84985352 332.47412109 387.3203125 333.8828125 C386.37494629 334.42091553 385.42958008 334.95901855 384.45556641 335.51342773 C383.41964355 336.08134033 382.3837207 336.64925293 381.31640625 337.234375 C379.10673517 338.4830098 376.89710098 339.73170989 374.6875 340.98046875 C373.54007324 341.62097168 372.39264648 342.26147461 371.21044922 342.92138672 C365.73471721 345.99147859 360.31017799 349.14904189 354.87890625 352.296875 C352.69440791 353.55667909 350.50950959 354.81578985 348.32421875 356.07421875 C341.79904382 359.83292881 335.27627175 363.5957925 328.75390625 367.359375 C326.58725042 368.60939379 324.42058375 369.85939378 322.25390625 371.109375 C321.18140625 371.728125 320.10890625 372.346875 319.00390625 372.984375 C298.42057292 384.859375 277.83723958 396.734375 257.25390625 408.609375 C255.64273926 409.53919189 255.64273926 409.53919189 253.99902344 410.48779297 C251.84932708 411.7276043 249.69894468 412.96622694 247.54785156 414.20361328 C242.47416091 417.12410542 237.40826662 420.05611925 232.36633301 423.03106689 C229.98802312 424.43337904 227.60575123 425.82888097 225.22314453 427.22387695 C223.54589896 428.2096934 221.87442744 429.20531297 220.203125 430.20117188 C219.18347656 430.79736328 218.16382813 431.39355469 217.11328125 432.0078125 C216.22092773 432.53552246 215.32857422 433.06323242 214.40917969 433.60693359 C211.44703253 435.00412143 209.02129905 435.64261576 205.75390625 435.859375 C203.54924568 434.18982622 201.99009526 432.76656001 200.19140625 430.734375 C199.73572266 430.24710937 199.28003906 429.75984375 198.81054688 429.2578125 C197.44848406 427.80081217 196.10111203 426.33012367 194.75390625 424.859375 C193.09376778 423.18620561 191.42706551 421.51952369 189.75390625 419.859375 C188.85414063 418.93640625 187.954375 418.0134375 187.02734375 417.0625 C181.52731217 411.43850005 175.94305438 406.14862816 169.76953125 401.25390625 C167.54319955 399.4861066 165.35293331 397.69748242 163.17578125 395.87109375 C153.96891568 388.18469228 144.40073685 381.27660452 134.41845703 374.63525391 C131.55250858 372.72514679 128.6978106 370.79891347 125.84375 368.87109375 C104.08709857 354.21390812 81.73167413 340.30711614 58.51171875 328.06640625 C48.91910226 322.99873895 41.30944256 317.71284255 33.75390625 309.859375 C32.74457031 308.87904297 32.74457031 308.87904297 31.71484375 307.87890625 C21.72215165 297.55605913 16.93854584 283.00276775 16.75390625 268.859375 C17.58332325 256.11092849 21.90295408 245.85773508 31.48046875 237.3203125 C34.54933521 234.90036934 36.21260131 233.90858454 40.19140625 233.546875 C41.45984375 233.7015625 41.45984375 233.7015625 42.75390625 233.859375 C43.57421875 237.05859375 43.57421875 237.05859375 43.75390625 240.859375 C41.62109375 243.37890625 41.62109375 243.37890625 38.62890625 245.671875 C31.91332235 251.29214493 28.08549821 256.13136248 27.2890625 265.03515625 C26.47833241 280.64421274 31.90861679 292.93892944 41.75390625 304.859375 C48.75885901 312.42823272 57.80063882 316.75067968 66.80444336 321.50219727 C79.80005762 328.38489536 92.26929361 336.10016066 104.75390625 343.859375 C105.76291992 344.48521484 106.77193359 345.11105469 107.81152344 345.75585938 C121.10326897 354.02687493 134.04572011 362.71808812 146.75390625 371.859375 C147.99430664 372.74955322 147.99430664 372.74955322 149.25976562 373.65771484 C158.4140241 380.24913714 167.35987993 386.97177658 175.87109375 394.37890625 C178.48397034 396.62711307 181.15953717 398.74292414 183.87890625 400.859375 C192.83189609 408.10449196 200.70316421 416.64583991 208.75390625 424.859375 C212.86287912 423.6017643 216.40797611 422.07961308 220.11328125 419.91015625 C221.13292969 419.3171875 222.15257812 418.72421875 223.203125 418.11328125 C224.29238281 417.47261719 225.38164062 416.83195312 226.50390625 416.171875 C227.66111597 415.49680861 228.81867482 414.82234038 229.9765625 414.1484375 C232.37961207 412.74921695 234.78114545 411.34744565 237.18164062 409.94384766 C242.69177437 406.72488135 248.22398242 403.54417655 253.75390625 400.359375 C255.92067604 399.10955376 258.0873424 397.8595532 260.25390625 396.609375 C299.25390625 374.109375 299.25390625 374.109375 302.50439453 372.23413086 C304.66947696 370.98501982 306.83451607 369.73583371 308.99951172 368.48657227 C314.44006331 365.34735191 319.88137841 362.20946937 325.32421875 359.07421875 C337.07144167 352.30550593 348.80089572 345.50794889 360.50634766 338.66723633 C367.89609116 334.35145122 375.30925175 330.07976012 382.75390625 325.859375 C381.66574712 320.52202551 380.3340156 315.35872863 378.64794922 310.18017578 C373.92186903 295.53382824 371.67891695 280.61373546 369.83203125 265.3671875 C368.04054962 250.65940176 365.92469819 236.78142645 360.75390625 222.859375 C360.47595215 222.0972168 360.19799805 221.33505859 359.91162109 220.54980469 C355.1112975 207.65317022 348.51754881 195.8915017 341.59716797 184.03125 C339.32443911 180.12035022 337.08761364 176.18957243 334.85189819 172.25743103 C328.32736509 160.78404026 321.73172093 149.35406162 315.05859375 137.96630859 C311.86337653 132.50477985 308.69916555 127.02707142 305.5703125 121.52734375 C305.21560883 120.90425323 304.86090515 120.28116272 304.49545288 119.63919067 C302.77481612 116.61525058 301.05763826 113.58942132 299.34570312 110.56054688 C296.32494798 105.24240344 293.26405263 99.95078862 290.0703125 94.734375 C289.54252197 93.86941406 289.01473145 93.00445312 288.47094727 92.11328125 C284.61566837 87.05257675 279.62537621 85.30113961 273.50390625 84.359375 C268.03404524 84.05549383 263.77655239 84.24557265 259.19140625 87.421875 C254.69644703 91.52720774 251.9954347 94.96453397 251.484375 101.08984375 C251.37967429 107.57848132 251.37967429 107.57848132 252.75390625 113.859375 C252.87890625 117.484375 252.87890625 117.484375 252.75390625 120.859375 C251.75390625 121.859375 251.75390625 121.859375 249.44140625 122.234375 C246.75390625 121.859375 246.75390625 121.859375 244.98828125 120.0234375 C241.12739532 114.55609903 237.92568535 108.68903952 234.61914062 102.875 C229.48107704 94.00179801 223.89889286 87.18372089 213.75390625 83.859375 C203.35113737 82.95325147 193.94502106 83.28174015 185.50390625 89.921875 C178.96059316 96.21654219 176.47186724 102.34924867 176.25390625 111.421875 C176.42068934 116.75355383 177.1672872 121.12506469 179.1484375 126.0546875 C179.99514279 128.57841554 179.67670582 130.39857614 178.75390625 132.859375 C177.75390625 133.859375 177.75390625 133.859375 175.40234375 134.19140625 C172.75390625 133.859375 172.75390625 133.859375 170.98046875 132.05859375 C170.45195312 131.22972656 169.9234375 130.40085938 169.37890625 129.546875 C168.48558594 128.18369141 168.48558594 128.18369141 167.57421875 126.79296875 C166.37111814 124.85406627 165.17819311 122.90880864 163.99609375 120.95703125 C159.15912533 113.05086539 154.62337644 106.96324512 145.40625 104.33203125 C136.39086063 102.72545965 127.57537518 102.75055425 119.75390625 107.859375 C114.22005684 111.76969793 109.34966761 116.08491641 107.75390625 122.859375 C107.44992216 125.71536042 107.35088533 128.55087604 107.31640625 131.421875 C107.30609375 132.1422998 107.29578125 132.86272461 107.28515625 133.60498047 C107.36966689 138.73313277 108.58921839 142.22887472 110.75390625 146.859375 C111.00390625 150.234375 111.00390625 150.234375 110.75390625 152.859375 C109.75390625 153.859375 109.75390625 153.859375 107.06640625 154.359375 C102.18393751 153.62239859 100.66711165 150.65059844 97.75390625 146.859375 C95.48498689 143.77511139 93.30005512 140.63800932 91.12890625 137.484375 C89.88829601 135.69772556 88.64740603 133.91127033 87.40625 132.125 C86.48368408 130.7937207 86.48368408 130.7937207 85.54248047 129.43554688 C82.94207763 125.6900581 80.32053229 121.95973974 77.69140625 118.234375 C77.20647705 117.54666016 76.72154785 116.85894531 76.22192383 116.15039062 C72.62743073 111.06517889 68.97666637 106.02235812 65.31640625 100.984375 C60.8130601 94.78394012 56.43284109 88.51223111 52.12890625 82.171875 C47.82062176 75.8256628 43.41053892 69.58005817 38.8449707 63.41674805 C35.44022263 58.81525414 32.11163431 54.16487855 28.81640625 49.484375 C28.32108398 48.78103027 27.82576172 48.07768555 27.31542969 47.35302734 C25.26367516 44.4362914 23.214898 41.5174883 21.16894531 38.59667969 C18.13737034 34.26930599 15.09440306 29.95068444 12.02587891 25.64941406 C10.93910063 24.11999788 9.86650272 22.58052201 8.796875 21.0390625 C3.73117009 14.03961075 -3.52820617 7.52875773 -12.24609375 5.859375 C-18.935259 5.0687232 -23.60089939 6.22691871 -29.24609375 9.859375 C-29.81585938 10.22160156 -30.385625 10.58382812 -30.97265625 10.95703125 C-35.28708351 14.09189835 -37.29866712 17.73074323 -38.24609375 22.859375 C-39.64697802 38.19992247 -35.04173041 48.29987497 -26.87109375 61.109375 C-26.15379712 62.25123102 -25.43767286 63.39382425 -24.72265625 64.53710938 C-23.26698643 66.86364057 -21.80722781 69.18752368 -20.34472656 71.50976562 C-17.2622141 76.42973666 -14.25271519 81.39280135 -11.24609375 86.359375 C-3.63346523 98.89265208 4.05990427 111.37594882 11.75390625 123.859375 C20.02587155 137.28053975 28.28280559 150.70986587 36.46972656 164.18310547 C42.83813896 174.65628509 49.26902192 185.09086217 55.69970703 195.52587891 C57.77955993 198.90100506 59.858715 202.27655977 61.9375 205.65234375 C62.62344238 206.76609375 63.30938477 207.87984375 64.01611328 209.02734375 C65.3688045 211.22566833 66.72007288 213.42486914 68.06982422 215.625 C71.08621379 220.54048613 74.11553311 225.44527071 77.203125 230.31640625 C77.72285889 231.14398438 78.24259277 231.9715625 78.77807617 232.82421875 C79.72875614 234.33649974 80.68793359 235.8434887 81.6574707 237.34375 C85.56255144 243.59066146 85.56255144 243.59066146 84.75390625 247.859375 C84.09390625 248.519375 83.43390625 249.179375 82.75390625 249.859375 C80.33984375 249.76171875 80.33984375 249.76171875 77.75390625 248.859375 C75.98046875 246.92578125 75.98046875 246.92578125 74.37890625 244.421875 C73.85554688 243.61878906 73.3321875 242.81570313 72.79296875 241.98828125 C72.12007813 240.95574219 71.4471875 239.92320312 70.75390625 238.859375 C69.64536708 237.29665832 68.5344489 235.73562799 67.421875 234.17578125 C63.80019269 229.02092649 60.59450822 223.68466064 57.44140625 218.234375 C53.68406172 211.80974995 49.91182842 205.404933 45.94140625 199.109375 C41.58483524 192.19873371 37.2845559 185.25483038 33.00390625 178.296875 C32.31796387 177.1819165 31.63202148 176.06695801 30.92529297 174.91821289 C25.86946603 166.69167206 20.8458268 158.44590977 15.83300781 150.19311523 C12.00418075 143.89581699 8.14078806 137.62098508 4.25390625 131.359375 C-0.81001871 123.20159579 -5.81688832 115.01064668 -10.80029297 106.8034668 C-14.61728461 100.52201476 -18.45924194 94.25654117 -22.31811523 88.00073242 C-25.0004405 83.65140373 -27.67642682 79.2982011 -30.35058594 74.94384766 C-31.58375363 72.9371706 -32.81868655 70.9315769 -34.05566406 68.92724609 C-35.7102521 66.24262796 -37.35456214 63.55199066 -38.99609375 60.859375 C-39.47320801 60.08956299 -39.95032227 59.31975098 -40.44189453 58.52661133 C-47.73599754 46.48883706 -51.79607865 34.08113055 -49.12890625 19.96875 C-46.43911856 10.49498451 -40.40969139 3.53571554 -32.0390625 -1.45703125 C-21.58550531 -6.43243907 -9.91751419 -5.75770465 0 0 Z " fill="#545860" transform="translate(119.24609375,76.140625)"/>
<path d="M0 0 C0.85807251 -0.00095673 1.71614502 -0.00191345 2.60021973 -0.00289917 C4.41593499 -0.00358022 6.23165268 -0.00173117 8.04736328 0.00244141 C10.83241221 0.00779072 13.61729986 0.00249389 16.40234375 -0.00390625 C18.16406286 -0.00324546 19.92578186 -0.00196426 21.6875 0 C22.52398071 -0.00202423 23.36046143 -0.00404846 24.22229004 -0.00613403 C30.11383166 0.01785333 30.11383166 0.01785333 32.34375 1.1328125 C33.21875 3.4453125 33.21875 3.4453125 33.34375 6.1328125 C31.87304688 8.26977539 31.87304688 8.26977539 29.34375 10.1328125 C26.43201274 10.51855387 23.90743515 10.67098914 21 10.62890625 C19.79083923 10.6310891 19.79083923 10.6310891 18.55725098 10.63331604 C16.85600158 10.63165893 15.1547369 10.62011849 13.45361328 10.59936523 C10.85254104 10.57041036 8.25350785 10.57875907 5.65234375 10.59179688 C3.99738595 10.58555904 2.34243457 10.57716775 0.6875 10.56640625 C-0.08863647 10.56934189 -0.86477295 10.57227753 -1.66442871 10.57530212 C-5.9219557 10.50107651 -8.57680835 10.20055878 -11.65625 7.1328125 C-11.28125 4.1953125 -11.28125 4.1953125 -10.65625 1.1328125 C-7.34219065 -0.52421717 -3.64246952 -0.00881455 0 0 Z " fill="#51565F" transform="translate(11.65625,94.8671875)"/>
<path d="M0 0 C1.02359619 0.27593994 2.04719238 0.55187988 3.10180664 0.83618164 C3.78930664 2.52368164 3.78930664 2.52368164 4.10180664 4.83618164 C1.06918732 10.83203415 -3.89469557 15.31507636 -8.56665039 20.04003906 C-10.14572089 21.64616681 -11.69917203 23.27465939 -13.25366211 24.90454102 C-14.26388133 25.93140901 -15.27555326 26.9568503 -16.28881836 27.98071289 C-17.65055176 29.37833862 -17.65055176 29.37833862 -19.03979492 30.80419922 C-22.58095778 33.3215462 -24.64300195 33.32101988 -28.89819336 32.83618164 C-29.89819336 31.83618164 -29.89819336 31.83618164 -30.30078125 29.16796875 C-29.76037096 24.69557386 -27.53212837 22.56990512 -24.45678711 19.52758789 C-23.61604393 18.67111916 -23.61604393 18.67111916 -22.75831604 17.79734802 C-21.57122052 16.5974326 -20.37633815 15.40517751 -19.17431641 14.22021484 C-17.34108471 12.40402288 -15.54828324 10.5536481 -13.75561523 8.69750977 C-12.59576986 7.53444035 -11.43372936 6.37355499 -10.26928711 5.21508789 C-9.47040321 4.38250206 -9.47040321 4.38250206 -8.65538025 3.53309631 C-5.58122556 0.5698566 -4.34828964 -0.18273328 0 0 Z " fill="#51565F" transform="translate(168.898193359375,28.163818359375)"/>
<path d="M0 0 C2.26939382 1.76022894 4.17389254 3.44892119 6.17578125 5.4765625 C7.0308149 6.32086319 7.0308149 6.32086319 7.90312195 7.18222046 C9.10351605 8.37483898 10.29755407 9.57388452 11.4855957 10.77880859 C13.30467901 12.61709645 15.15113386 14.42420305 17.00195312 16.23046875 C18.16583643 17.39406166 19.32800575 18.55937204 20.48828125 19.7265625 C21.04131424 20.26431305 21.59434723 20.8020636 22.16413879 21.35610962 C24.76208794 24.03484673 25.94810019 25.5753992 26.40698242 29.32958984 C26 32 26 32 25 33 C20.55069484 33.55334518 18.60503647 33.43924014 14.92626953 30.76855469 C13.89340236 29.75472123 12.87963542 28.72116853 11.8828125 27.671875 C11.06887527 26.85375336 11.06887527 26.85375336 10.23849487 26.019104 C9.09922674 24.86711362 7.96840646 23.70671417 6.84570312 22.53857422 C5.12702019 20.75209987 3.38298727 18.99386083 1.6328125 17.23828125 C0.52706302 16.11353305 -0.57715823 14.98727996 -1.6796875 13.859375 C-2.19941132 13.33317566 -2.71913513 12.80697632 -3.25460815 12.26483154 C-7.79773581 7.50904848 -7.79773581 7.50904848 -8 4 C-7.67 3.01 -7.34 2.02 -7 1 C-4.31953276 -0.34023362 -2.99016334 -0.43838455 0 0 Z " fill="#51565F" transform="translate(36,28)"/>
<path d="M0 0 C2.23901367 0.46728516 2.23901367 0.46728516 4.23901367 2.46728516 C4.69042969 5.21386719 4.69042969 5.21386719 4.23901367 8.46728516 C2.55823837 10.75779951 1.01724965 12.5554207 -0.98364258 14.52197266 C-1.52194199 15.06838409 -2.06024139 15.61479553 -2.61485291 16.17776489 C-3.75497226 17.32633034 -4.90277308 18.46731507 -6.05761719 19.60107422 C-7.81653227 21.3354282 -9.53806009 23.10161946 -11.2590332 24.87353516 C-12.37347859 25.98761002 -13.48995199 27.09966065 -14.60864258 28.20947266 C-15.37471581 29.00150589 -15.37471581 29.00150589 -16.15626526 29.80953979 C-19.03467105 32.57949988 -20.55603677 33.44631236 -24.58300781 33.85839844 C-27.76098633 33.46728516 -27.76098633 33.46728516 -28.76098633 32.46728516 C-29.16796875 29.796875 -29.16796875 29.796875 -28.76098633 26.46728516 C-26.98617338 24.10750318 -25.34204247 22.22879108 -23.24926758 20.19384766 C-22.68402878 19.62524017 -22.11878998 19.05663269 -21.53642273 18.47079468 C-20.3406302 17.27530051 -19.13736595 16.08723943 -17.92724609 14.90625 C-16.07774019 13.0964477 -14.25940274 11.25909665 -12.44262695 9.41650391 C-11.27575477 8.25719016 -10.10718944 7.0995776 -8.93676758 5.94384766 C-8.39385574 5.39395172 -7.85094391 4.84405579 -7.2915802 4.27749634 C-4.9061623 1.97915805 -3.31320728 0.5607462 0 0 Z " fill="#51565F" transform="translate(56.760986328125,138.53271484375)"/>
<path d="M0 0 C3.5 0.125 3.5 0.125 4.5 1.125 C4.61356724 4.1313825 4.66418912 7.11392442 4.66796875 10.12109375 C4.67129715 11.0249733 4.67462555 11.92885284 4.67805481 12.86012268 C4.68312796 14.77596527 4.68546302 16.69181672 4.68530273 18.60766602 C4.68748813 21.54653418 4.70563665 24.48502652 4.72460938 27.42382812 C4.72754337 29.28124871 4.72952813 31.13867109 4.73046875 32.99609375 C4.73765427 33.87945908 4.74483978 34.7628244 4.75224304 35.67295837 C4.72882139 41.89617861 4.72882139 41.89617861 2.5 44.125 C0 44.375 0 44.375 -2.5 44.125 C-5.19776637 41.42723363 -4.73845196 39.33730115 -4.75224304 35.67295837 C-4.74505753 34.78959305 -4.73787201 33.90622772 -4.73046875 32.99609375 C-4.73001053 32.09125748 -4.72955231 31.1864212 -4.7290802 30.25416565 C-4.7260567 28.34008473 -4.7181675 26.42600631 -4.70581055 24.51196289 C-4.68755301 21.57103835 -4.68530083 18.63042842 -4.68554688 15.68945312 C-4.68063186 13.83333059 -4.67480362 11.97721021 -4.66796875 10.12109375 C-4.66685593 9.23570419 -4.6657431 8.35031464 -4.66459656 7.43809509 C-4.60761147 0.16455755 -4.60761147 0.16455755 0 0 Z " fill="#51565F" transform="translate(100.5,-0.125)"/>
</svg>
