<svg version="1.1" id="Layer_1" xmlns="http://www.w3.org/2000/svg" xmlns:xlink="http://www.w3.org/1999/xlink" x="0px" y="0px"
	 width="100%" viewBox="0 0 416 432" enable-background="new 0 0 416 432" xml:space="preserve">
<path fill="#000000" opacity="1.000000" stroke="none" 
	d="
M211.122971,121.225632 
	C192.150070,158.823975 186.819794,197.473465 199.073380,237.911438 
	C194.895004,202.347900 198.565948,167.787888 213.357239,134.934204 
	C228.259232,101.834572 252.451614,77.363838 283.890839,59.981659 
	C284.328003,60.248558 284.765167,60.515457 285.202362,60.782356 
	C283.450195,68.307358 281.665436,75.824951 279.953186,83.359024 
	C276.966736,96.499725 274.476654,109.742409 274.752838,123.273857 
	C275.114044,140.972229 277.603119,158.356201 283.765808,175.073395 
	C288.592377,188.166122 291.344574,201.573318 290.382965,215.639832 
	C290.159210,218.912781 288.728333,222.117874 289.726044,226.247803 
	C295.103210,223.130722 300.084106,219.932755 305.716858,218.058578 
	C315.946442,214.654861 326.140411,212.260574 337.019928,215.185928 
	C347.414001,217.980774 355.305145,223.926361 360.586914,233.102005 
	C362.425964,236.296906 364.468323,238.173294 368.047913,238.808670 
	C370.647247,239.270081 373.041016,240.456879 374.892914,242.650894 
	C373.587311,244.939529 371.566559,244.151443 369.916565,244.228256 
	C361.786621,244.606720 353.659760,243.975784 345.507904,245.198090 
	C333.700226,246.968552 324.118805,252.135284 316.795380,261.554901 
	C308.914886,271.691010 303.119263,283.244781 295.007050,293.238953 
	C281.973267,309.296478 264.993652,317.971771 244.828735,321.401886 
	C226.382172,324.539764 208.380051,322.300232 190.439713,318.112732 
	C184.683823,316.769257 179.779068,313.455017 174.463333,311.098267 
	C142.606339,296.974426 117.961517,301.708679 93.813278,326.741058 
	C91.885674,328.739227 89.947281,330.726990 87.683601,333.060028 
	C87.334267,325.360809 99.932678,309.243011 112.569557,300.450806 
	C123.097748,293.125732 131.725311,290.155548 152.168991,287.004944 
	C141.177719,283.521149 131.285278,284.909790 121.277313,287.923523 
	C127.336472,278.221161 136.617569,273.753784 147.688507,271.421051 
	C142.106216,250.681732 139.774582,230.415482 150.084106,210.822479 
	C151.735870,207.683350 153.467728,204.467941 157.750168,201.742767 
	C155.401062,222.426407 159.498734,240.687057 170.259125,257.531860 
	C154.597595,201.807388 168.977600,155.072327 211.611008,116.223915 
	C213.186768,118.497971 211.656921,119.599396 211.122971,121.225632 
M343.205750,232.292709 
	C345.655792,232.879166 346.773926,231.761734 346.456146,229.418869 
	C346.244965,227.861938 344.969025,227.078110 343.489899,227.703415 
	C341.333862,228.614868 340.851227,230.122253 343.205750,232.292709 
z"/>
<path fill="#000000" opacity="1.000000" stroke="none" 
	d="
M94.285568,329.291077 
	C104.827843,318.494385 116.428635,310.121979 131.285385,307.352936 
	C148.318146,304.178345 164.271942,307.152618 179.051636,316.185394 
	C181.130417,317.455872 183.609512,318.848480 181.436325,322.047333 
	C170.697021,337.855194 157.893494,350.914307 138.162079,354.882721 
	C134.028259,355.714111 129.855835,355.523468 125.728065,355.313507 
	C106.940132,354.357788 89.953690,359.587708 74.288300,369.725189 
	C72.270912,371.030701 70.447678,372.999207 66.149170,372.573273 
	C72.119316,355.623535 82.490700,342.223145 94.285568,329.291077 
z"/>
</svg>